<svg width="28" height="28" viewBox="0 0 28 28" fill="none" xmlns="http://www.w3.org/2000/svg">
<circle cx="14" cy="14" r="14" fill="#303030"/>
<path d="M14.3098 10.4746C13.2924 10.4746 12.3167 10.8788 11.5972 11.5982C10.8778 12.3176 10.4736 13.2934 10.4736 14.3108C10.4736 15.3282 10.8778 16.304 11.5972 17.0234C12.3167 17.7429 13.2924 18.147 14.3098 18.147C15.3273 18.147 16.303 17.7429 17.0224 17.0234C17.7419 16.304 18.146 15.3282 18.146 14.3108C18.146 13.2934 17.7419 12.3176 17.0224 11.5982C16.303 10.8788 15.3273 10.4746 14.3098 10.4746ZM14.3098 16.8022C13.6489 16.8022 13.015 16.5396 12.5476 16.0722C12.0802 15.6049 11.8176 14.971 11.8176 14.31C11.8176 13.649 12.0802 13.0151 12.5476 12.5477C13.015 12.0804 13.6489 11.8178 14.3098 11.8178C14.9708 11.8178 15.6047 12.0804 16.0721 12.5477C16.5395 13.0151 16.802 13.649 16.802 14.31C16.802 14.971 16.5395 15.6049 16.0721 16.0722C15.6047 16.5396 14.9708 16.8022 14.3098 16.8022Z" fill="white"/>
<path d="M18.2986 11.2281C18.7926 11.2281 19.193 10.8277 19.193 10.3338C19.193 9.83986 18.7926 9.43945 18.2986 9.43945C17.8047 9.43945 17.4043 9.83986 17.4043 10.3338C17.4043 10.8277 17.8047 11.2281 18.2986 11.2281Z" fill="white"/>
<path d="M21.3899 9.42449C21.1979 8.92852 20.9044 8.47811 20.5282 8.10211C20.1521 7.7261 19.7016 7.43277 19.2055 7.2409C18.6251 7.023 18.0118 6.90518 17.392 6.89246C16.593 6.85761 16.34 6.84766 14.314 6.84766C12.2881 6.84766 12.0284 6.84766 11.2361 6.89246C10.6167 6.90453 10.0039 7.02238 9.42419 7.2409C8.92802 7.43255 8.47739 7.72579 8.10121 8.10183C7.72503 8.47787 7.43161 8.92839 7.23978 9.42449C7.02184 10.0049 6.90429 10.6182 6.89216 11.2381C6.85649 12.0362 6.8457 12.2892 6.8457 14.316C6.8457 16.3419 6.8457 16.6 6.89216 17.3939C6.90461 18.0145 7.02158 18.6267 7.23978 19.2083C7.43215 19.7042 7.72585 20.1546 8.10212 20.5306C8.47839 20.9065 8.92896 21.1999 9.42502 21.3919C10.0036 21.6185 10.6167 21.7448 11.2378 21.7652C12.0367 21.8001 12.2897 21.8109 14.3157 21.8109C16.3416 21.8109 16.6013 21.8109 17.3936 21.7652C18.0134 21.7526 18.6266 21.6351 19.2072 21.4176C19.7031 21.2253 20.1535 20.9317 20.5296 20.5556C20.9057 20.1795 21.1993 19.7291 21.3916 19.2332C21.6098 18.6525 21.7268 18.0402 21.7392 17.4196C21.7749 16.6215 21.7857 16.3685 21.7857 14.3417C21.7857 12.3149 21.7857 12.0577 21.7392 11.2638C21.7296 10.6351 21.6114 10.0129 21.3899 9.42449ZM20.3795 17.3325C20.3741 17.8106 20.2868 18.2843 20.1214 18.7329C19.9968 19.0555 19.8061 19.3485 19.5615 19.593C19.3169 19.8375 19.0238 20.028 18.7011 20.1524C18.2574 20.3171 17.7888 20.4043 17.3156 20.4104C16.5275 20.4469 16.3051 20.4561 14.2842 20.4561C12.2615 20.4561 12.0549 20.4561 11.2519 20.4104C10.7789 20.4047 10.3105 20.3174 9.86721 20.1524C9.5434 20.0288 9.24914 19.8386 9.00348 19.5941C8.75782 19.3495 8.56622 19.0562 8.44108 18.7329C8.27801 18.2891 8.19079 17.821 8.18307 17.3483C8.14739 16.5601 8.1391 16.3378 8.1391 14.3168C8.1391 12.295 8.1391 12.0884 8.18307 11.2845C8.18843 10.8067 8.2757 10.3333 8.44108 9.88493C8.69412 9.23035 9.21264 8.71515 9.86721 8.4646C10.3107 8.30045 10.779 8.2132 11.2519 8.20659C12.0408 8.17092 12.2624 8.16096 14.2842 8.16096C16.306 8.16096 16.5134 8.16096 17.3156 8.20659C17.7889 8.21228 18.2576 8.29957 18.7011 8.4646C19.0238 8.58928 19.3168 8.78003 19.5614 9.02463C19.806 9.26923 19.9968 9.56226 20.1214 9.88493C20.2845 10.3287 20.3717 10.7968 20.3795 11.2696C20.4151 12.0586 20.4243 12.2801 20.4243 14.3019C20.4243 16.3229 20.4243 16.5402 20.3886 17.3333H20.3795V17.3325Z" fill="white"/>
</svg>
