<svg width="230" height="18" viewBox="0 0 230 18" fill="none" xmlns="http://www.w3.org/2000/svg">
<path d="M62.5882 0.234718C63.8566 0.295418 65.1067 0.490299 66.2803 1.04938C67.2583 1.51582 68.0255 2.20908 68.3555 3.31127C68.6581 4.3304 68.6245 5.36231 68.2302 6.3431C67.8023 7.41334 67.0963 8.25037 66.0816 8.75834C65.776 8.91169 65.4367 9.00114 65.1128 9.11615C64.8163 9.21838 64.8041 9.24075 64.9722 9.50911C66.1061 11.3078 67.2339 13.1096 68.3769 14.9019C68.6581 15.3427 68.9576 15.7772 69.2877 16.183C69.6178 16.5887 70.0457 16.8539 70.5622 16.9465C70.6631 16.9657 70.822 17.0519 70.8342 17.1286C70.8617 17.3139 70.8342 17.5152 70.7975 17.7037C70.7884 17.7452 70.6447 17.7899 70.5683 17.7835C68.5603 17.6302 66.9191 16.7772 65.7791 15.0009C64.6757 13.2789 63.5907 11.5442 62.5027 9.81261C62.3865 9.62731 62.249 9.55064 62.0351 9.55383C60.8798 9.56342 59.7245 9.55383 58.5692 9.55703C58.2941 9.55703 58.2544 9.59217 58.2544 9.87331C58.2544 11.6145 58.2422 13.3556 58.2666 15.0935C58.2697 15.429 58.3736 15.7772 58.4958 16.0935C58.6578 16.5152 58.9971 16.7548 59.4188 16.873C59.7611 16.9689 59.9323 17.3459 59.7611 17.6653C59.7214 17.7388 59.5808 17.7835 59.483 17.7867C59.1285 17.7995 58.7709 17.7899 58.4164 17.7931C57.2061 17.7931 55.9958 17.7931 54.7854 17.8059C54.5715 17.8059 54.5073 17.7164 54.5073 17.5216C54.5073 17.4417 54.5195 17.3586 54.5073 17.2788C54.4768 17.0487 54.5776 16.9273 54.7854 16.8858C55.5556 16.7388 56.008 15.9625 56.0141 15.2756C56.0141 15.068 56.0263 14.8571 56.0263 14.6495C56.0263 9.97235 56.0233 5.29522 56.0202 0.621284C56.0202 0.199576 56.0294 0.189991 56.4267 0.189991C57.4934 0.189991 61.6041 0.180407 62.5913 0.228328L62.5882 0.234718ZM58.2483 4.8799C58.2483 5.98209 58.2483 7.08109 58.2483 8.18328C58.2483 8.56346 58.2911 8.60818 58.6456 8.60818C59.5014 8.60818 60.3541 8.61777 61.2098 8.60499C62.0992 8.58902 62.9856 8.52512 63.823 8.1705C64.6085 7.83825 65.2442 7.33986 65.6171 6.51242C65.9961 5.66581 66.0327 4.78086 65.8677 3.89272C65.6782 2.87678 65.1189 2.13241 64.205 1.69153C63.5602 1.37844 62.8847 1.2187 62.1787 1.20592C61.002 1.18356 59.8253 1.17398 58.6517 1.16439C58.2849 1.1612 58.2452 1.20273 58.2452 1.57652C58.2452 2.67871 58.2452 3.77771 58.2452 4.8799H58.2483Z" fill="black"/>
<path d="M204.01 17.9756C202.98 17.9852 201.965 17.8606 200.984 17.5475C199.01 16.9213 197.399 15.7393 196.195 13.9853C194.82 11.9822 194.45 9.73311 194.862 7.33704C195.361 4.44259 197.02 2.44906 199.444 1.09128C201.055 0.190362 202.803 -0.0524397 204.606 0.0274293C207.137 0.142441 209.304 1.11365 211.061 3.0337C212.011 4.07199 212.675 5.28281 213.026 6.68531C213.384 8.11976 213.411 9.56059 213.109 10.9918C212.714 12.864 211.758 14.4007 210.364 15.6402C208.763 17.0683 206.904 17.819 204.808 17.9341C204.542 17.95 204.276 17.9596 204.01 17.9724V17.9756ZM210.7 9.46155C210.709 8.59258 210.67 7.72999 210.502 6.8706C210.266 5.67896 209.82 4.59594 209.157 3.60875C208.439 2.53851 207.51 1.72385 206.314 1.30533C204.823 0.781393 203.31 0.835703 201.825 1.31811C200.092 1.88358 198.937 3.1551 198.154 4.82596C197.711 5.77161 197.473 6.77796 197.366 7.82584C197.149 9.95994 197.46 11.9854 198.515 13.8543C199.059 14.816 199.759 15.6274 200.685 16.2089C201.95 17.0012 203.328 17.1673 204.762 17.0108C205.45 16.9341 206.122 16.7807 206.752 16.4836C208.579 15.6147 209.643 14.062 210.269 12.1324C210.547 11.273 210.682 10.3785 210.7 9.46475V9.46155Z" fill="black"/>
<path d="M159.453 9.15062C159.453 11.0994 159.447 13.0482 159.459 15.0002C159.459 15.2973 159.508 15.6008 159.593 15.8852C159.768 16.4538 160.125 16.834 160.715 16.949C160.822 16.9682 160.984 17.0513 160.999 17.1311C161.036 17.3164 161.014 17.5177 160.981 17.7094C160.975 17.7509 160.828 17.7956 160.749 17.7956C159.547 17.7988 158.349 17.7956 157.148 17.7956C156.965 17.7956 156.879 17.7222 156.901 17.5241C156.91 17.4314 156.907 17.3388 156.901 17.2461C156.895 17.0768 156.965 16.9714 157.13 16.9714C157.928 16.9714 158.386 16.1791 158.45 15.4411C158.469 15.2462 158.469 15.0481 158.469 14.8501C158.469 11.0451 158.469 7.23696 158.469 3.432C158.469 2.88569 158.456 2.33939 158.203 1.84101C157.998 1.43527 157.674 1.19886 157.249 1.09663C157.127 1.06787 156.943 1.11899 156.922 0.9305C156.898 0.726036 156.907 0.515182 156.943 0.313912C156.953 0.269185 157.136 0.234043 157.24 0.234043C158.138 0.227653 159.04 0.26599 159.939 0.218069C160.461 0.189316 160.782 0.387391 161.112 0.799515C162.533 2.579 163.991 4.32653 165.437 6.08365C167.173 8.19219 168.909 10.3007 170.645 12.4093C170.935 12.7607 171.223 13.1153 171.516 13.4603C171.574 13.5306 171.672 13.5626 171.751 13.6137C171.782 13.5242 171.84 13.4348 171.843 13.3453C171.852 12.7415 171.846 12.1377 171.846 11.5339C171.846 8.77363 171.855 6.01017 171.837 3.2499C171.837 2.8186 171.745 2.37773 171.626 1.95921C171.489 1.47361 171.097 1.2372 170.642 1.11899C170.294 1.02634 170.294 1.02954 170.294 0.665335C170.294 0.59505 170.293 0.524766 170.287 0.457676C170.275 0.310717 170.339 0.240432 170.477 0.237237C170.544 0.237237 170.611 0.237237 170.676 0.237237C171.797 0.237237 172.919 0.237237 174.041 0.237237C174.358 0.237237 174.374 0.256406 174.38 0.591856C174.386 1.01676 174.386 1.01676 173.979 1.16691C173.845 1.21803 173.707 1.27234 173.579 1.33943C173.118 1.57904 172.913 2.00394 172.852 2.51191C172.821 2.77388 172.824 3.04543 172.824 3.3106C172.824 8.02287 172.824 12.7319 172.824 17.4442C172.824 17.7861 172.812 17.7765 172.491 17.8052C172.182 17.8308 171.974 17.7062 171.779 17.4666C169.517 14.6999 167.246 11.9428 164.975 9.18256C163.255 7.09 161.534 4.99743 159.813 2.90806C159.764 2.84736 159.712 2.78027 159.651 2.73554C159.544 2.65887 159.459 2.68123 159.444 2.83138C159.437 2.89847 159.444 2.97195 159.444 3.03904C159.444 5.08049 159.444 7.12514 159.444 9.16659L159.453 9.15062Z" fill="black"/>
<path d="M185.639 0.0295124C187.277 0.0518757 188.707 0.66527 189.979 1.72912C190.728 2.3553 191.29 3.11884 191.568 4.07408C191.706 4.5469 191.785 5.04529 191.828 5.54047C191.898 6.37431 191.868 7.21133 191.623 8.0228C191.366 8.8758 190.939 9.62977 190.33 10.2591C189.251 11.3709 187.953 12.029 186.452 12.2303C185.88 12.307 185.303 12.3581 184.728 12.3581C183.457 12.3581 182.274 12.0163 181.207 11.2687C181.002 11.1249 180.911 11.1569 180.914 11.3901C180.926 12.8054 180.929 14.2206 180.978 15.6359C180.996 16.1375 181.232 16.5752 181.705 16.7988C181.864 16.8723 182.042 16.9138 182.216 16.9458C182.549 17.0129 182.564 17.0224 182.564 17.3643C182.564 17.4218 182.564 17.4793 182.567 17.5368C182.583 17.7221 182.485 17.786 182.329 17.7924C182.274 17.7924 182.219 17.7924 182.161 17.7924C180.617 17.7924 179.074 17.7924 177.527 17.7924C177.362 17.7924 177.155 17.8627 177.127 17.5655C177.087 17.0959 177.127 16.9937 177.436 16.9266C178.111 16.7828 178.457 16.3036 178.6 15.6519C178.674 15.3164 178.695 14.9618 178.695 14.6136C178.701 9.86618 178.701 5.12196 178.701 0.374546C178.701 0.0486809 178.732 0.0135386 179.04 0.0135386C180.229 0.0135386 181.418 0.0135386 182.607 0.0135386C182.607 0.0135386 184.63 0.0103438 185.639 0.0231228V0.0295124ZM181.32 0.949603C180.944 0.949603 180.911 0.978356 180.911 1.35214C180.911 3.97185 180.911 6.59474 180.914 9.21445C180.914 9.34543 180.938 9.50836 181.012 9.60421C181.577 10.3454 182.28 10.9045 183.16 11.1664C184.306 11.5051 185.465 11.5019 186.611 11.1664C187.473 10.9109 188.157 10.3837 188.613 9.55629C188.934 8.97165 189.111 8.34228 189.181 7.68096C189.325 6.3136 189.362 4.95264 188.955 3.61723C188.5 2.12208 187.485 1.29783 186.036 1.09017C185.129 0.959188 181.971 0.949603 181.317 0.949603H181.32Z" fill="black"/>
<path d="M8.76238 0.0339256C10.7582 0.139353 12.4086 1.03069 13.7136 2.60571C14.1629 3.14882 14.4044 3.80694 14.5755 4.50339C14.7283 5.12957 14.7528 5.76213 14.7406 6.40108C14.7069 8.44253 13.8084 9.9856 12.2099 11.1038C11.0332 11.9248 9.71595 12.2858 8.3131 12.3433C7.52151 12.3753 6.73298 12.3529 5.96278 12.1389C5.31484 11.96 4.70358 11.6948 4.14732 11.2986C4.07092 11.2443 3.89365 11.1197 3.81113 11.0463C3.80196 11.1581 3.7989 11.3913 3.7989 11.4935C3.79279 12.6309 3.78056 13.7682 3.80807 14.9055C3.81724 15.3177 3.88448 15.7394 3.99756 16.1323C4.12287 16.5572 4.44684 16.8064 4.87473 16.8959C4.98476 16.9182 5.09173 16.9502 5.20176 16.9662C5.38514 16.9917 5.4646 17.0812 5.4646 17.2888C5.46766 17.784 5.45237 17.8096 4.96031 17.8096C3.43826 17.8096 1.91621 17.8096 0.394155 17.8096C0.219944 17.8096 0.0549027 17.8287 0.0212832 17.5827C-0.036787 17.1738 0.0151705 16.9885 0.287184 16.947C1.06655 16.832 1.52805 16.0269 1.5525 15.2506C1.57084 14.7298 1.58307 14.2059 1.58307 13.6851C1.58307 9.22844 1.58307 4.77495 1.58307 0.318259C1.58307 0.0435098 1.61363 0.014757 1.93454 0.014757C3.11123 0.014757 7.66821 -0.0203854 8.76543 0.0403151L8.76238 0.0339256ZM3.7989 5.26375C3.7989 6.52887 3.79279 7.794 3.80502 9.05912C3.80502 9.2572 3.83252 9.50319 3.94255 9.64696C4.60272 10.5095 5.45543 11.0718 6.49764 11.2859C7.52762 11.4967 8.55149 11.4648 9.56008 11.1389C10.535 10.8226 11.238 10.1837 11.6751 9.21567C11.944 8.61825 12.0449 7.97929 12.1091 7.33395C12.2374 6.05285 12.2099 4.77814 11.834 3.54497C11.5284 2.53862 10.8987 1.80063 9.95129 1.37572C9.2086 1.04347 8.42924 0.966795 7.63765 0.957211C6.51598 0.941237 5.39431 0.950822 4.27263 0.947627C3.83252 0.947627 3.7989 0.97638 3.7989 1.43643C3.7989 2.71433 3.7989 3.98904 3.7989 5.26694V5.26375Z" fill="black"/>
<path d="M23.177 0.19928C24.699 0.19928 26.2211 0.218449 27.7431 0.192891C28.5745 0.176917 29.4027 0.0810741 30.234 0.0203737C30.6273 -0.0094441 30.8229 0.180112 30.8209 0.589041C30.8209 1.37815 30.8209 2.16725 30.8209 2.95636C30.8209 3.28861 30.7964 3.31098 30.4816 3.31737C30.393 3.31737 30.3043 3.31098 30.2157 3.31737C30.0476 3.33334 29.9529 3.26305 29.8887 3.09373C29.4119 1.81263 28.4033 1.35259 27.196 1.22799C26.7651 1.18327 26.3311 1.17049 25.8971 1.16729C24.4087 1.1609 22.9202 1.1641 21.4318 1.1641C21.0528 1.1641 21.0253 1.18646 21.0253 1.56983C21.0253 3.70393 21.0253 5.84123 21.0253 7.97532C21.0253 8.38425 21.0437 8.40023 21.444 8.40023C22.4771 8.40023 23.5101 8.41301 24.5432 8.39384C24.8824 8.38745 25.2278 8.33314 25.5548 8.2341C25.946 8.11589 26.2027 7.8092 26.3617 7.41305C26.5298 6.99134 26.7407 6.8955 27.1685 7.00731C27.3244 7.04565 27.3519 7.15427 27.3519 7.29165C27.3519 7.54723 27.3519 7.80281 27.3519 8.05839C27.3519 8.86027 27.3458 9.65896 27.355 10.4608C27.355 10.6845 27.2847 10.7899 27.0707 10.7771C27.0157 10.7739 26.9607 10.7771 26.9026 10.7771C26.4931 10.7771 26.4809 10.7803 26.3494 10.3842C26.1477 9.77717 25.7473 9.45769 25.1422 9.40977C24.9221 9.3906 24.699 9.37463 24.4759 9.37463C23.4429 9.37143 22.4098 9.37143 21.3768 9.37463C21.0559 9.37463 21.0314 9.39699 21.0314 9.72605C21.0314 11.9879 21.0314 14.253 21.0314 16.5149C21.0314 16.844 21.0528 16.8568 21.3829 16.8568C23.0822 16.8568 24.7815 16.8568 26.4809 16.8568C27.4161 16.8568 28.3452 16.7833 29.2499 16.5085C29.9651 16.2913 30.6161 15.9558 31.0654 15.2977C31.2549 15.0198 31.3985 14.7227 31.426 14.3776C31.4443 14.17 31.5391 14.0741 31.7469 14.0645C32.3398 14.0326 32.4163 14.1188 32.2451 14.7227C31.8539 16.0964 30.9767 17.0037 29.7114 17.5181C29.1765 17.7353 28.6172 17.812 28.0457 17.8152C24.5676 17.8152 21.0926 17.8152 17.6145 17.8152C17.4616 17.8152 17.2966 17.8503 17.2569 17.6139C17.1927 17.2273 17.2508 16.9877 17.48 16.9366C18.5314 16.7098 18.7728 15.9207 18.8125 15.0134C18.8156 14.9335 18.8125 14.8504 18.8125 14.7706C18.8125 10.9401 18.8125 7.11274 18.8125 3.28222C18.8125 2.79662 18.8003 2.30782 18.5803 1.85736C18.3663 1.41968 18.0179 1.18327 17.5747 1.08103C17.2691 1.01075 17.266 1.02033 17.2599 0.684884C17.2599 0.636962 17.2599 0.592236 17.2599 0.544314C17.266 0.234423 17.2844 0.212059 17.587 0.212059C19.4544 0.212059 21.3187 0.212059 23.1861 0.212059L23.177 0.19928Z" fill="black"/>
<path d="M107.261 17.7893C105.461 17.7893 103.661 17.7893 101.861 17.7893C101.708 17.7893 101.519 17.8244 101.522 17.5753C101.525 17.1344 101.464 16.9874 101.772 16.9203C102.616 16.7414 103.019 16.1025 103.071 15.1856C103.083 14.9779 103.08 14.7671 103.08 14.5594C103.08 10.764 103.08 6.96865 103.08 3.17328C103.08 2.71962 103.053 2.27236 102.851 1.85384C102.637 1.41936 102.307 1.16377 101.852 1.07432C101.534 1.01362 101.525 1.00723 101.522 0.68456C101.522 0.627055 101.528 0.566354 101.522 0.512043C101.494 0.275631 101.61 0.198957 101.818 0.214931C101.873 0.218125 101.928 0.214931 101.986 0.214931C104.92 0.214931 107.851 0.195762 110.785 0.224515C112.02 0.234099 113.249 0.135062 114.474 0.0264398C114.551 0.0200503 114.63 0.00727125 114.707 0.00407649C115.07 -0.0150921 115.107 0.0200503 115.107 0.403421C115.107 1.26281 115.107 2.1222 115.107 2.9784C115.107 3.31704 115.092 3.32663 114.768 3.32982C114.7 3.32982 114.633 3.32343 114.569 3.33302C114.346 3.36816 114.224 3.26593 114.144 3.04868C113.713 1.90496 112.833 1.3938 111.724 1.2692C111.039 1.19253 110.351 1.16058 109.664 1.151C108.352 1.13183 107.041 1.14461 105.73 1.14461C105.33 1.14461 105.29 1.17975 105.29 1.59826C105.29 3.75792 105.29 5.91438 105.29 8.07404C105.29 8.3424 105.336 8.39671 105.605 8.39671C106.782 8.39671 107.961 8.40629 109.138 8.38713C109.887 8.37754 110.425 8.01334 110.706 7.26576C110.746 7.16353 110.843 7.01977 110.926 7.01018C111.128 6.98782 111.339 7.02296 111.543 7.0613C111.577 7.06769 111.607 7.20187 111.607 7.27535C111.611 8.3424 111.607 9.40945 111.614 10.4797C111.614 10.681 111.534 10.7864 111.335 10.7768C111.268 10.7768 111.201 10.7576 111.137 10.7704C110.859 10.8279 110.727 10.6778 110.648 10.4286C110.434 9.73531 109.975 9.39667 109.279 9.39347C108.047 9.38708 106.812 9.36792 105.58 9.36153C105.345 9.36153 105.293 9.43501 105.293 9.6842C105.293 11.9589 105.296 14.2335 105.299 16.5082C105.299 16.8021 105.345 16.85 105.632 16.85C107.445 16.85 109.254 16.8628 111.066 16.8405C111.867 16.8309 112.665 16.7446 113.438 16.5178C114.221 16.2878 114.951 15.9459 115.394 15.1824C115.547 14.9204 115.633 14.6137 115.715 14.3166C115.77 14.1249 115.859 14.0514 116.042 14.0482C116.644 14.0355 116.696 14.0962 116.516 14.7191C116.155 15.9715 115.376 16.8437 114.245 17.3836C113.649 17.6679 113.019 17.7829 112.368 17.7829C110.669 17.7797 108.97 17.7829 107.267 17.7829L107.261 17.7893Z" fill="black"/>
<path d="M145.668 17.7945C143.889 17.7945 142.114 17.7945 140.335 17.7945C140.259 17.7945 140.179 17.8009 140.103 17.7913C140.051 17.7849 139.986 17.7721 139.95 17.7402C139.794 17.5996 139.916 17.0086 140.112 16.9383C140.28 16.8776 140.451 16.8329 140.61 16.7562C140.998 16.5677 141.24 16.2354 141.34 15.8169C141.42 15.4943 141.469 15.1556 141.469 14.8234C141.478 10.9833 141.475 7.13996 141.475 3.29986C141.475 2.7855 141.447 2.28073 141.206 1.81429C140.989 1.39897 140.659 1.15617 140.213 1.0795C139.898 1.02519 139.898 1.02199 139.898 0.680152C139.898 0.609867 139.901 0.539583 139.895 0.472493C139.873 0.284002 139.968 0.220107 140.13 0.223301C140.24 0.223301 140.353 0.223301 140.463 0.223301C143.807 0.223301 147.151 0.236081 150.494 0.213717C151.301 0.207328 152.111 0.0987058 152.918 0.0220316C153.474 -0.0290845 153.474 -0.0386688 153.471 0.542777C153.471 1.35425 153.471 2.16891 153.471 2.98038C153.471 3.3318 153.468 3.3318 153.141 3.3318C153.074 3.3318 153.006 3.32541 152.942 3.33819C152.722 3.37333 152.6 3.28388 152.517 3.05705C152.255 2.34143 151.781 1.82388 151.093 1.53954C150.827 1.43092 150.546 1.32869 150.265 1.29674C149.635 1.22646 149.003 1.16895 148.373 1.15937C146.94 1.1402 145.506 1.15298 144.073 1.15298C143.7 1.15298 143.669 1.18492 143.666 1.5651C143.666 3.71198 143.666 5.85886 143.666 8.00574C143.666 8.37952 143.691 8.40828 144.039 8.40828C145.173 8.40828 146.307 8.40828 147.438 8.40508C147.997 8.40508 148.489 8.22617 148.835 7.73738C148.945 7.58083 149.033 7.39873 149.094 7.21663C149.149 7.0505 149.241 6.99939 149.391 7.00578C149.424 7.00578 149.458 7.00578 149.492 7.00578C149.99 6.99939 149.99 6.99939 149.99 7.51374C149.99 8.453 149.99 9.39226 149.99 10.3347C149.99 10.7788 149.975 10.7628 149.568 10.7916C149.235 10.8171 149.085 10.6638 148.987 10.3667C148.783 9.72771 148.342 9.42101 147.707 9.41143C146.463 9.39546 145.219 9.38268 143.975 9.37309C143.715 9.37309 143.675 9.4274 143.666 9.70854C143.66 9.89384 143.666 10.0791 143.666 10.2644C143.666 12.3187 143.666 14.3729 143.666 16.4271C143.666 16.8361 143.688 16.8584 144.082 16.8584C145.794 16.8584 147.505 16.868 149.214 16.8552C150.06 16.8488 150.904 16.7849 151.72 16.5389C152.163 16.4048 152.603 16.2195 153 15.9799C153.59 15.622 153.963 15.063 154.088 14.3505C154.128 14.1237 154.235 14.0598 154.455 14.0598C155.118 14.0598 155.011 14.1077 154.895 14.6349C154.663 15.6764 154.067 16.4687 153.22 17.0533C152.456 17.5804 151.61 17.8009 150.696 17.7977C149.018 17.7881 147.34 17.7977 145.662 17.7977L145.668 17.7945Z" fill="black"/>
<path d="M120.822 0.220893C121.632 0.220893 122.445 0.220893 123.255 0.220893C123.38 0.220893 123.567 0.166582 123.591 0.348683C123.618 0.559538 123.582 0.779976 123.548 0.994025C123.542 1.02917 123.414 1.04834 123.34 1.06431C123.2 1.09626 123.05 1.09306 122.919 1.15057C122.332 1.39976 122.139 1.92689 122.42 2.54348C122.9 3.58817 123.389 4.62647 123.887 5.65837C124.572 7.08643 125.269 8.5081 125.963 9.93296C126.708 11.4696 127.457 13.0095 128.206 14.5462C128.215 14.5654 128.227 14.5877 128.24 14.6037C128.31 14.6836 128.38 14.7602 128.451 14.8401C128.53 14.7539 128.637 14.6804 128.689 14.5781C129.884 12.2012 131.076 9.82115 132.262 7.43786C132.974 6.0098 133.683 4.58174 134.377 3.14729C134.505 2.88213 134.597 2.58821 134.652 2.29749C134.792 1.57228 134.322 1.22405 133.854 1.10584C133.759 1.08028 133.655 1.07709 133.558 1.0675C133.246 1.04195 133.218 1.01319 133.212 0.693718C133.206 0.376371 133.359 0.217698 133.671 0.217698C134.893 0.217698 136.116 0.217698 137.335 0.217698C137.47 0.217698 137.671 0.150608 137.705 0.345489C137.739 0.553148 137.696 0.776781 137.668 0.99083C137.665 1.02278 137.58 1.05473 137.528 1.06431C136.773 1.22085 136.262 1.71285 135.896 2.38055C135.456 3.18244 135.037 4.00029 134.621 4.81815C133.802 6.42192 132.986 8.02569 132.173 9.63266C131.366 11.23 130.562 12.8274 129.759 14.4248C129.205 15.5206 128.649 16.6164 128.099 17.7122C128.001 17.9039 127.873 18.0061 127.65 17.9997C127.43 17.9933 127.283 17.9422 127.176 17.7122C126.73 16.7538 126.262 15.8081 125.807 14.8561C125.226 13.6453 124.652 12.4313 124.074 11.2205C123.505 10.0288 122.937 8.83716 122.365 7.64871C121.607 6.06411 120.853 4.47951 120.091 2.89491C119.957 2.61696 119.816 2.33902 119.657 2.07385C119.337 1.53074 118.86 1.20488 118.27 1.08348C118.041 1.03556 117.967 0.933324 117.983 0.709691C117.989 0.639407 117.992 0.569122 117.983 0.502032C117.961 0.291178 118.05 0.201724 118.249 0.208114C118.505 0.214504 118.759 0.208114 119.016 0.208114C119.615 0.208114 120.217 0.208114 120.816 0.208114L120.822 0.220893Z" fill="black"/>
<path d="M43.772 0.275767C46.1406 0.199093 48.8486 0.109639 51.5565 0.0233809C51.6115 0.0233809 51.6665 0.0233809 51.7215 0.0169914C51.9202 0.00101756 51.9935 0.0904708 51.9905 0.30452C51.9813 1.07126 51.9874 1.83481 51.9874 2.60155C51.9874 2.65906 51.9874 2.71656 51.9874 2.77407C51.9874 3.37149 51.8621 3.48331 51.3058 3.35232C51.2233 3.33315 51.1133 3.21814 51.1011 3.13508C50.9635 2.1447 50.013 1.25975 48.9372 1.21503C48.0845 1.17669 47.2287 1.17669 46.3729 1.1671C45.8839 1.16072 45.3949 1.1671 44.9059 1.1671C44.5544 1.1671 44.5116 1.20864 44.5116 1.56006C44.5116 6.02633 44.5116 10.4926 44.5116 14.9589C44.5116 15.4157 44.5666 15.8662 44.8203 16.256C45.0251 16.5722 45.3032 16.7895 45.6669 16.8821C46.0153 16.9716 46.1926 17.3581 46.0092 17.6712C45.9603 17.7575 45.7861 17.799 45.6669 17.799C44.5666 17.8086 43.4694 17.8022 42.3691 17.8022C41.9596 17.8022 41.547 17.8022 41.1374 17.8022C40.7646 17.8022 40.7371 17.7735 40.734 17.3933C40.7309 16.9939 40.7432 16.9748 41.1191 16.8757C41.7334 16.7128 42.088 16.2751 42.2163 15.6553C42.2927 15.2975 42.2988 14.9173 42.2988 14.5468C42.305 10.2306 42.3019 5.91452 42.3019 1.5984C42.3019 1.19266 42.2713 1.15433 41.8862 1.15752C40.6087 1.1671 39.3312 1.14474 38.0567 1.20544C36.9686 1.25656 36.2137 1.86676 35.8439 2.95617C35.7155 3.33315 35.3396 3.49608 34.9667 3.34274C34.8139 3.27884 34.8384 3.14466 34.8384 3.02007C34.8384 2.35875 34.8384 1.69743 34.8384 1.03612C34.8384 0.802902 34.8384 0.57288 34.8384 0.339662C34.8384 0.0265756 34.8567 0.00101756 35.1623 0.0106018C35.9295 0.0329652 36.6935 0.0649128 37.4607 0.0872761C39.4473 0.144782 41.4339 0.202287 43.7628 0.269377L43.772 0.275767Z" fill="black"/>
<path d="M88.2053 9.74495C88.2053 11.9366 88.2053 14.1314 88.2053 16.323C88.2053 16.3932 88.2053 16.4635 88.2053 16.5306C88.2206 16.799 88.2726 16.8597 88.5293 16.8597C90.3723 16.8597 92.2183 16.9076 94.0613 16.8373C95.7056 16.7766 96.8761 15.8917 97.518 14.2847C97.5363 14.2432 97.5485 14.1984 97.5608 14.1537C97.6952 13.6809 97.8603 13.5787 98.334 13.6745C98.5235 13.7128 98.5388 13.8438 98.5266 14.0131C98.4563 14.9428 98.0864 15.7319 97.4721 16.3932C96.6286 17.3006 95.5833 17.7766 94.3761 17.783C91.1761 17.7989 87.9792 17.7894 84.7792 17.7862C84.5102 17.7862 84.4858 17.751 84.4797 17.4603C84.4736 17.1557 84.6142 16.9619 84.9014 16.8788C85.4883 16.7095 85.9375 16.1057 85.9895 15.3997C86.0048 15.192 86.0078 14.9812 86.0078 14.7735C86.0078 10.0612 86.0109 5.35215 86.014 0.639885C86.014 0.356616 86.1484 0.214982 86.4174 0.214982C87.4168 0.214982 88.4162 0.214982 89.4156 0.214982C89.5715 0.214982 89.758 0.160671 89.7794 0.438615C89.813 0.921023 89.7794 1.00728 89.4829 1.07437C88.8441 1.22133 88.4407 1.63026 88.3123 2.29796C88.2481 2.62383 88.2145 2.96567 88.2115 3.29792C88.2023 5.4448 88.2084 7.59168 88.2084 9.73856L88.2053 9.74495Z" fill="black"/>
<path d="M220.798 17.7955C219.175 17.7955 217.555 17.7955 215.932 17.7955C215.779 17.7955 215.577 17.8562 215.55 17.5879C215.501 17.1119 215.541 16.9937 215.837 16.9266C216.644 16.7477 216.983 16.1598 217.099 15.3771C217.13 15.1726 217.124 14.9618 217.124 14.7509C217.124 10.0387 217.127 5.3264 217.13 0.617321C217.13 0.23395 217.133 0.22756 217.5 0.224365C218.511 0.224365 219.523 0.224365 220.532 0.224365C220.859 0.224365 220.877 0.246729 220.868 0.607736C220.859 1.01028 220.853 0.997497 220.489 1.10931C219.786 1.32336 219.474 1.79938 219.343 2.61405C219.312 2.80573 219.318 3.007 219.318 3.20508C219.318 7.56912 219.318 11.9332 219.318 16.2972C219.318 16.3771 219.318 16.4601 219.318 16.54C219.331 16.8275 219.361 16.8691 219.627 16.8691C221.461 16.8691 223.295 16.9042 225.125 16.8531C226.614 16.8116 227.748 16.0736 228.451 14.6775C228.564 14.4538 228.652 14.211 228.71 13.965C228.762 13.7478 228.878 13.6903 229.065 13.6807C229.64 13.6487 229.704 13.6967 229.606 14.2845C229.41 15.4666 228.799 16.3771 227.849 17.032C227.087 17.5559 226.244 17.8019 225.33 17.7955C223.82 17.7892 222.307 17.7955 220.798 17.7955Z" fill="black"/>
</svg>
