<svg width="607" height="170" viewBox="0 0 607 170" fill="none" xmlns="http://www.w3.org/2000/svg">
<path d="M261.669 1.27358C266.972 1.51117 272.198 2.27393 277.105 4.4622C281.194 6.28783 284.401 9.00128 285.781 13.3153C287.046 17.3042 286.905 21.3431 285.257 25.1819C283.468 29.3709 280.516 32.647 276.274 34.6352C274.996 35.2354 273.578 35.5856 272.223 36.0357C270.984 36.4359 270.933 36.5234 271.636 37.5738C276.376 44.6137 281.091 51.6662 285.87 58.6811C287.046 60.4067 288.298 62.1073 289.678 63.6954C291.058 65.2834 292.847 66.3213 295.007 66.6839C295.428 66.759 296.093 67.0966 296.144 67.3967C296.259 68.1219 296.144 68.9097 295.991 69.6475C295.952 69.81 295.352 69.9851 295.032 69.9601C286.637 69.3599 279.775 66.0212 275.009 59.0688C270.396 52.3289 265.86 45.539 261.311 38.7617C260.825 38.0364 260.25 37.7363 259.356 37.7488C254.526 37.7863 249.696 37.7488 244.866 37.7613C243.716 37.7613 243.549 37.8989 243.549 38.9993C243.549 45.8141 243.498 52.629 243.601 59.4314C243.613 60.7444 244.048 62.1073 244.559 63.3453C245.236 64.9958 246.655 65.9337 248.418 66.3963C249.849 66.7715 250.565 68.247 249.849 69.4974C249.683 69.785 249.095 69.9601 248.686 69.9726C247.204 70.0226 245.709 69.9851 244.227 69.9976C239.167 69.9976 234.106 69.9976 229.046 70.0476C228.152 70.0476 227.884 69.6975 227.884 68.9347C227.884 68.6221 227.935 68.297 227.884 67.9844C227.756 67.0841 228.177 66.6089 229.046 66.4463C232.266 65.8711 234.158 62.8326 234.183 60.1441C234.183 59.3314 234.234 58.5061 234.234 57.6933C234.234 39.3869 234.221 21.0805 234.209 2.78661C234.209 1.13603 234.247 1.09852 235.908 1.09852C240.368 1.09852 257.554 1.06101 261.682 1.24857L261.669 1.27358ZM243.524 19.4549C243.524 23.7689 243.524 28.0704 243.524 32.3844C243.524 33.8725 243.703 34.0475 245.185 34.0475C248.763 34.0475 252.328 34.085 255.906 34.035C259.624 33.9725 263.33 33.7224 266.831 32.3344C270.115 31.034 272.773 29.0833 274.332 25.8447C275.916 22.531 276.07 19.0673 275.38 15.5911C274.587 11.6147 272.249 8.70118 268.428 6.97557C265.732 5.75015 262.908 5.12493 259.956 5.07491C255.037 4.98738 250.117 4.94987 245.211 4.91235C243.677 4.89985 243.511 5.06241 243.511 6.52542C243.511 10.8394 243.511 15.1409 243.511 19.4549H243.524Z" fill="black"/>
<path d="M499.827 169.645C495.521 169.682 491.278 169.194 487.177 167.969C478.922 165.518 472.188 160.892 467.153 154.027C461.403 146.186 459.857 137.383 461.582 128.005C463.665 116.676 470.603 108.873 480.736 103.559C487.47 100.033 494.78 99.0825 502.319 99.3951C512.899 99.8453 521.958 103.647 529.306 111.162C533.28 115.226 536.053 119.965 537.522 125.454C539.017 131.069 539.132 136.708 537.867 142.31C536.219 149.638 532.219 155.652 526.392 160.504C519.697 166.093 511.928 169.032 503.162 169.482C502.05 169.545 500.939 169.582 499.827 169.632V169.645ZM527.811 136.308C527.849 132.907 527.683 129.531 526.98 126.167C525.996 121.503 524.131 117.264 521.358 113.4C518.355 109.211 514.471 106.022 509.474 104.384C503.239 102.334 496.913 102.546 490.703 104.434C483.458 106.648 478.628 111.624 475.357 118.164C473.504 121.865 472.507 125.804 472.06 129.906C471.153 138.259 472.456 146.186 476.865 153.502C479.139 157.265 482.065 160.441 485.937 162.717C491.227 165.818 496.99 166.469 502.983 165.856C505.858 165.556 508.669 164.956 511.302 163.793C518.943 160.391 523.39 154.314 526.009 146.762C527.172 143.398 527.734 139.897 527.811 136.321V136.308Z" fill="black"/>
<path d="M313.535 135.108C313.535 142.736 313.51 150.363 313.561 158.003C313.561 159.166 313.765 160.354 314.123 161.467C314.851 163.693 316.346 165.181 318.813 165.631C319.26 165.706 319.937 166.031 320.001 166.344C320.154 167.069 320.065 167.857 319.924 168.607C319.899 168.77 319.285 168.945 318.953 168.945C313.931 168.957 308.922 168.945 303.901 168.945C303.134 168.945 302.776 168.657 302.866 167.882C302.904 167.519 302.891 167.157 302.866 166.794C302.84 166.131 303.134 165.719 303.824 165.719C307.159 165.719 309.076 162.618 309.344 159.729C309.421 158.966 309.421 158.191 309.421 157.416C309.421 142.523 309.421 127.618 309.421 112.725C309.421 110.587 309.37 108.449 308.309 106.498C307.453 104.91 306.098 103.985 304.322 103.584C303.811 103.472 303.044 103.672 302.955 102.934C302.853 102.134 302.891 101.309 303.044 100.521C303.083 100.346 303.849 100.208 304.284 100.208C308.041 100.183 311.81 100.333 315.567 100.146C317.752 100.033 319.094 100.808 320.474 102.422C326.415 109.386 332.511 116.226 338.555 123.104C345.813 131.357 353.071 139.61 360.328 147.862C361.542 149.238 362.744 150.626 363.97 151.976C364.213 152.251 364.622 152.376 364.954 152.577C365.082 152.226 365.325 151.876 365.338 151.526C365.376 149.163 365.35 146.8 365.35 144.436C365.35 133.632 365.389 122.816 365.312 112.012C365.312 110.324 364.929 108.599 364.43 106.961C363.855 105.06 362.22 104.135 360.316 103.672C358.859 103.309 358.859 103.322 358.859 101.896C358.859 101.621 358.859 101.346 358.833 101.084C358.782 100.508 359.051 100.233 359.626 100.221C359.907 100.221 360.188 100.221 360.456 100.221C365.146 100.221 369.835 100.221 374.525 100.221C375.854 100.221 375.918 100.296 375.943 101.609C375.969 103.272 375.969 103.272 374.269 103.86C373.707 104.06 373.132 104.272 372.595 104.535C370.666 105.473 369.81 107.136 369.554 109.124C369.426 110.149 369.439 111.212 369.439 112.25C369.439 130.694 369.439 149.125 369.439 167.569C369.439 168.907 369.388 168.87 368.046 168.982C366.756 169.082 365.887 168.595 365.069 167.657C355.613 156.828 346.119 146.037 336.625 135.233C329.431 127.043 322.237 118.852 315.043 110.674C314.839 110.437 314.621 110.174 314.366 109.999C313.919 109.699 313.561 109.787 313.497 110.374C313.471 110.637 313.497 110.924 313.497 111.187C313.497 119.177 313.497 127.18 313.497 135.17L313.535 135.108Z" fill="black"/>
<path d="M423.03 99.3955C429.879 99.483 435.859 101.884 441.175 106.048C444.306 108.499 446.657 111.487 447.82 115.226C448.395 117.077 448.727 119.027 448.906 120.965C449.2 124.229 449.072 127.505 448.05 130.681C446.976 134.02 445.187 136.971 442.645 139.434C438.134 143.786 432.703 146.362 426.429 147.15C424.04 147.45 421.625 147.65 419.222 147.65C413.907 147.65 408.962 146.312 404.502 143.386C403.646 142.823 403.263 142.948 403.275 143.861C403.326 149.4 403.339 154.94 403.544 160.479C403.62 162.442 404.604 164.156 406.585 165.031C407.249 165.318 407.99 165.481 408.719 165.606C410.112 165.869 410.176 165.906 410.176 167.244C410.176 167.469 410.176 167.694 410.188 167.919C410.252 168.645 409.843 168.895 409.192 168.92C408.962 168.92 408.732 168.92 408.489 168.92C402.036 168.92 395.583 168.92 389.117 168.92C388.427 168.92 387.558 169.195 387.443 168.032C387.277 166.194 387.443 165.794 388.734 165.531C391.558 164.968 393.002 163.093 393.602 160.542C393.909 159.229 393.999 157.841 393.999 156.478C394.024 137.896 394.024 119.327 394.024 100.746C394.024 99.4705 394.152 99.3329 395.442 99.3329C400.413 99.3329 405.384 99.3329 410.354 99.3329C410.354 99.3329 418.814 99.3204 423.03 99.3704V99.3955ZM404.975 102.997C403.403 102.997 403.263 103.109 403.263 104.572C403.263 114.826 403.263 125.092 403.275 135.346C403.275 135.858 403.378 136.496 403.684 136.871C406.048 139.772 408.987 141.96 412.667 142.986C417.459 144.311 422.302 144.299 427.094 142.986C430.697 141.985 433.559 139.922 435.463 136.683C436.805 134.395 437.546 131.932 437.84 129.343C438.441 123.992 438.594 118.665 436.895 113.438C434.991 107.586 430.748 104.36 424.691 103.547C420.896 103.034 407.697 102.997 404.962 102.997H404.975Z" fill="black"/>
<path d="M36.6343 0.473272C44.9783 0.885916 51.8785 4.37464 57.3347 10.5393C59.2131 12.665 60.2226 15.2409 60.9382 17.9669C61.5771 20.4177 61.6793 22.8936 61.6282 25.3945C61.4876 33.3848 57.7309 39.4244 51.0479 43.8009C46.1284 47.0145 40.621 48.4275 34.7559 48.6526C31.4464 48.7777 28.1496 48.6901 24.9296 47.8523C22.2206 47.1521 19.665 46.1142 17.3394 44.5637C17.0199 44.3511 16.2788 43.8634 15.9338 43.5758C15.8955 44.0135 15.8827 44.9263 15.8827 45.3264C15.8571 49.778 15.806 54.2296 15.921 58.6811C15.9593 60.2942 16.2405 61.9448 16.7133 63.4828C17.2372 65.1459 18.5916 66.1212 20.3806 66.4713C20.8406 66.5589 21.2878 66.6839 21.7478 66.7464C22.5145 66.8465 22.8467 67.1966 22.8467 68.0094C22.8595 69.9475 22.7956 70.0476 20.7383 70.0476C14.3749 70.0476 8.01139 70.0476 1.64791 70.0476C0.919556 70.0476 0.229541 70.1226 0.0889819 69.1598C-0.153801 67.5592 0.0634257 66.834 1.20067 66.6714C4.45908 66.2212 6.38857 63.0701 6.4908 60.0316C6.56746 57.9934 6.61858 55.9427 6.61858 53.9044C6.61858 36.4608 6.61858 19.0298 6.61858 1.58616C6.61858 0.510785 6.74636 0.398246 8.08805 0.398246C13.0076 0.398246 32.0597 0.260698 36.647 0.498281L36.6343 0.473272ZM15.8827 20.9429C15.8827 25.8947 15.8571 30.8464 15.9082 35.7981C15.9082 36.5734 16.0232 37.5362 16.4832 38.0989C19.2433 41.4751 22.8084 43.6759 27.1657 44.5137C31.4719 45.339 35.7526 45.2139 39.9693 43.9385C44.0455 42.7005 46.9845 40.1997 48.8118 36.4108C49.9362 34.0725 50.3579 31.5716 50.6263 29.0458C51.1629 24.0315 51.0479 19.0423 49.4762 14.2156C48.1984 10.2767 45.5661 7.38819 41.6049 5.72511C38.4999 4.42465 35.2415 4.12455 31.9319 4.08704C27.2424 4.02451 22.5528 4.06203 17.8633 4.04952C16.0232 4.04952 15.8827 4.16206 15.8827 5.96269C15.8827 10.9644 15.8827 15.9537 15.8827 20.9554V20.9429Z" fill="black"/>
<path d="M96.8956 1.12327C103.259 1.12327 109.623 1.1983 115.986 1.09827C119.462 1.03574 122.925 0.660613 126.4 0.42303C128.044 0.306323 128.862 1.04825 128.854 2.64881C128.854 5.73739 128.854 8.82597 128.854 11.9145C128.854 13.215 128.751 13.3025 127.435 13.3275C127.065 13.3275 126.694 13.3025 126.323 13.3275C125.621 13.3901 125.225 13.115 124.956 12.4522C122.963 7.43798 118.746 5.63735 113.699 5.14968C111.897 4.97462 110.083 4.9246 108.268 4.9121C102.045 4.88709 95.8222 4.89959 89.5993 4.89959C88.0148 4.89959 87.8998 4.98713 87.8998 6.48765C87.8998 14.8406 87.8998 23.206 87.8998 31.5589C87.8998 33.1595 87.9765 33.222 89.6504 33.222C93.9694 33.222 98.2884 33.272 102.607 33.197C104.026 33.172 105.47 32.9594 106.837 32.5718C108.473 32.1091 109.546 30.9087 110.21 29.3581C110.913 27.7076 111.795 27.3324 113.584 27.7701C114.235 27.9201 114.35 28.3453 114.35 28.883C114.35 29.8833 114.35 30.8837 114.35 31.884C114.35 35.0226 114.325 38.1487 114.363 41.2873C114.363 42.1626 114.069 42.5753 113.175 42.5252C112.945 42.5127 112.715 42.5252 112.472 42.5252C110.76 42.5252 110.709 42.5377 110.159 40.9872C109.316 38.6114 107.642 37.3609 105.112 37.1734C104.192 37.0983 103.259 37.0358 102.326 37.0358C98.0073 37.0233 93.6883 37.0233 89.3693 37.0358C88.0276 37.0358 87.9254 37.1234 87.9254 38.4113C87.9254 47.2644 87.9254 56.13 87.9254 64.9831C87.9254 66.271 88.0148 66.3211 89.3949 66.3211C96.4995 66.3211 103.604 66.3211 110.709 66.3211C114.619 66.3211 118.503 66.0335 122.286 64.9581C125.276 64.1078 127.997 62.7948 129.876 60.2189C130.668 59.131 131.269 57.9681 131.384 56.6177C131.46 55.8049 131.856 55.4298 132.725 55.3922C135.204 55.2672 135.524 55.6048 134.808 57.9681C133.173 63.345 129.505 66.8963 124.215 68.9095C121.979 69.7598 119.641 70.0599 117.251 70.0724C102.71 70.0724 88.1809 70.0724 73.6395 70.0724C73.0006 70.0724 72.3106 70.2099 72.1445 69.2846C71.8761 67.7716 72.1189 66.8337 73.0773 66.6337C77.4729 65.7459 78.4824 62.6573 78.6485 59.106C78.6613 58.7934 78.6485 58.4683 78.6485 58.1557C78.6485 43.163 78.6485 28.1827 78.6485 13.19C78.6485 11.2893 78.5974 9.37616 77.6774 7.61304C76.7829 5.89994 75.3262 4.97462 73.4734 4.57448C72.1956 4.29939 72.1828 4.3369 72.1572 3.02394C72.1572 2.83637 72.1572 2.66131 72.1572 2.47375C72.1828 1.26082 72.2595 1.17329 73.5245 1.17329C81.3319 1.17329 89.1265 1.17329 96.9339 1.17329L96.8956 1.12327Z" fill="black"/>
<path d="M95.3367 168.932C87.8104 168.932 80.2841 168.932 72.7578 168.932C72.1189 168.932 71.3267 169.07 71.3395 168.094C71.3522 166.369 71.0967 165.793 72.3873 165.531C75.914 164.831 77.6007 162.33 77.8179 158.741C77.8691 157.928 77.8563 157.103 77.8563 156.29C77.8563 141.435 77.8563 126.58 77.8563 111.724C77.8563 109.949 77.7413 108.198 76.8979 106.56C76.0035 104.86 74.6234 103.859 72.7195 103.509C71.3906 103.272 71.3522 103.247 71.3395 101.984C71.3395 101.759 71.365 101.521 71.3395 101.308C71.2245 100.383 71.71 100.083 72.5789 100.145C72.8089 100.158 73.0389 100.145 73.2817 100.145C85.5487 100.145 97.8029 100.07 110.07 100.183C115.232 100.22 120.369 99.8328 125.493 99.4077C125.812 99.3827 126.145 99.3327 126.464 99.3202C127.985 99.2451 128.138 99.3827 128.138 100.883C128.138 104.247 128.138 107.611 128.138 110.962C128.138 112.287 128.074 112.325 126.72 112.337C126.439 112.337 126.157 112.312 125.889 112.35C124.956 112.487 124.445 112.087 124.113 111.237C122.311 106.76 118.631 104.76 113.993 104.272C111.13 103.972 108.255 103.847 105.38 103.809C99.8985 103.734 94.4167 103.784 88.9349 103.784C87.2609 103.784 87.0948 103.922 87.0948 105.56C87.0948 114.013 87.0948 122.453 87.0948 130.906C87.0948 131.957 87.2865 132.169 88.411 132.169C93.3305 132.169 98.2629 132.207 103.182 132.132C106.313 132.094 108.562 130.669 109.738 127.743C109.904 127.342 110.313 126.78 110.658 126.742C111.501 126.655 112.383 126.792 113.239 126.942C113.379 126.967 113.507 127.492 113.507 127.78C113.52 131.957 113.507 136.133 113.533 140.322C113.533 141.11 113.2 141.522 112.37 141.485C112.089 141.485 111.808 141.41 111.539 141.46C110.376 141.685 109.827 141.097 109.495 140.122C108.6 137.408 106.684 136.083 103.77 136.07C98.6206 136.045 93.4583 135.97 88.3087 135.945C87.3248 135.945 87.1076 136.233 87.1076 137.208C87.1076 146.111 87.1204 155.015 87.1332 163.918C87.1332 165.068 87.3248 165.256 88.526 165.256C96.1034 165.256 103.668 165.306 111.245 165.218C114.593 165.181 117.928 164.843 121.161 163.955C124.432 163.055 127.486 161.717 129.339 158.728C129.978 157.703 130.336 156.503 130.681 155.34C130.911 154.589 131.281 154.302 132.048 154.289C134.565 154.239 134.783 154.477 134.029 156.915C132.521 161.817 129.262 165.231 124.535 167.344C122.043 168.457 119.411 168.907 116.689 168.907C109.584 168.894 102.48 168.907 95.3622 168.907L95.3367 168.932Z" fill="black"/>
<path d="M255.906 168.932C248.469 168.932 241.045 168.932 233.608 168.932C233.289 168.932 232.956 168.957 232.637 168.92C232.42 168.895 232.151 168.845 231.998 168.72C231.346 168.169 231.858 165.856 232.675 165.581C233.378 165.343 234.094 165.168 234.758 164.868C236.381 164.131 237.39 162.83 237.812 161.192C238.144 159.929 238.349 158.604 238.349 157.303C238.387 142.273 238.374 127.23 238.374 112.2C238.374 110.187 238.259 108.211 237.25 106.385C236.343 104.76 234.963 103.809 233.097 103.509C231.781 103.297 231.781 103.284 231.781 101.946C231.781 101.671 231.794 101.396 231.768 101.134C231.679 100.396 232.075 100.146 232.752 100.158C233.212 100.158 233.685 100.158 234.145 100.158C248.124 100.158 262.103 100.208 276.082 100.121C279.456 100.096 282.842 99.6705 286.215 99.3704C288.541 99.1703 288.541 99.1328 288.528 101.409C288.528 104.585 288.528 107.773 288.528 110.949C288.528 112.325 288.516 112.325 287.148 112.325C286.867 112.325 286.586 112.3 286.318 112.35C285.398 112.488 284.887 112.137 284.542 111.25C283.443 108.449 281.462 106.423 278.587 105.31C277.475 104.885 276.3 104.485 275.124 104.36C272.492 104.085 269.847 103.859 267.214 103.822C261.222 103.747 255.229 103.797 249.236 103.797C247.677 103.797 247.549 103.922 247.536 105.41C247.536 113.813 247.536 122.216 247.536 130.619C247.536 132.082 247.638 132.194 249.095 132.194C253.836 132.194 258.577 132.194 263.304 132.182C265.643 132.182 267.7 131.482 269.144 129.568C269.604 128.956 269.975 128.243 270.23 127.53C270.46 126.88 270.843 126.68 271.47 126.705C271.61 126.705 271.751 126.705 271.891 126.705C273.974 126.68 273.974 126.68 273.974 128.693C273.974 132.369 273.974 136.046 273.974 139.735C273.974 141.473 273.91 141.41 272.211 141.523C270.818 141.623 270.192 141.022 269.783 139.86C268.927 137.359 267.087 136.158 264.429 136.121C259.228 136.058 254.028 136.008 248.827 135.971C247.741 135.971 247.575 136.183 247.536 137.284C247.511 138.009 247.536 138.734 247.536 139.459C247.536 147.5 247.536 155.54 247.536 163.58C247.536 165.181 247.626 165.268 249.274 165.268C256.43 165.268 263.586 165.306 270.728 165.256C274.268 165.231 277.795 164.981 281.206 164.018C283.059 163.493 284.899 162.768 286.56 161.83C289.027 160.429 290.586 158.241 291.109 155.453C291.276 154.565 291.723 154.315 292.643 154.315C295.416 154.315 294.968 154.502 294.483 156.565C293.512 160.642 291.02 163.743 287.481 166.031C284.286 168.094 280.746 168.957 276.926 168.945C269.911 168.907 262.895 168.945 255.88 168.945L255.906 168.932Z" fill="black"/>
<path d="M152.033 100.146C155.419 100.146 158.818 100.146 162.204 100.146C162.728 100.146 163.508 99.9332 163.61 100.646C163.725 101.471 163.572 102.334 163.431 103.172C163.406 103.309 162.869 103.384 162.562 103.447C161.974 103.572 161.348 103.559 160.799 103.785C158.345 104.76 157.54 106.823 158.716 109.236C160.722 113.325 162.767 117.389 164.849 121.428C167.712 127.018 170.625 132.582 173.526 138.159C176.644 144.174 179.774 150.201 182.905 156.215C182.943 156.29 182.994 156.378 183.045 156.44C183.339 156.753 183.633 157.053 183.927 157.366C184.259 157.028 184.707 156.741 184.924 156.34C189.92 147.037 194.903 137.721 199.861 128.393C202.839 122.804 205.803 117.214 208.704 111.6C209.24 110.562 209.624 109.412 209.854 108.274C210.442 105.435 208.474 104.072 206.519 103.609C206.123 103.509 205.688 103.497 205.279 103.459C203.976 103.359 203.861 103.247 203.835 101.996C203.81 100.754 204.449 100.133 205.752 100.133C210.863 100.133 215.975 100.133 221.073 100.133C221.635 100.133 222.479 99.8707 222.619 100.633C222.76 101.446 222.581 102.322 222.466 103.159C222.453 103.284 222.095 103.409 221.878 103.447C218.722 104.06 216.588 105.985 215.054 108.599C213.214 111.737 211.464 114.938 209.726 118.14C206.302 124.417 202.89 130.694 199.491 136.984C196.117 143.236 192.757 149.488 189.396 155.74C187.083 160.029 184.758 164.318 182.458 168.607C182.049 169.357 181.512 169.758 180.579 169.733C179.659 169.708 179.046 169.508 178.599 168.607C176.733 164.856 174.778 161.155 172.874 157.428C170.446 152.689 168.044 147.937 165.629 143.198C163.252 138.534 160.875 133.87 158.486 129.218C155.317 123.016 152.161 116.814 148.979 110.612C148.417 109.524 147.829 108.436 147.165 107.398C145.823 105.273 143.83 103.997 141.363 103.522C140.405 103.334 140.098 102.934 140.162 102.059C140.188 101.784 140.201 101.509 140.162 101.246C140.073 100.421 140.443 100.071 141.274 100.096C142.347 100.121 143.408 100.096 144.481 100.096C146.986 100.096 149.503 100.096 152.007 100.096L152.033 100.146Z" fill="black"/>
<path d="M183.007 1.42364C192.91 1.12354 204.232 0.773414 215.553 0.435796C215.783 0.435796 216.013 0.435796 216.243 0.410787C217.074 0.348265 217.38 0.698388 217.367 1.53618C217.329 4.53723 217.355 7.52577 217.355 10.5268C217.355 10.7519 217.355 10.977 217.355 11.2021C217.355 13.5404 216.831 13.978 214.505 13.4653C214.16 13.3903 213.7 12.9402 213.649 12.6151C213.074 8.7387 209.1 5.27499 204.602 5.09993C201.037 4.94987 197.459 4.94987 193.881 4.91236C191.837 4.88735 189.792 4.91236 187.748 4.91236C186.278 4.91236 186.099 5.07492 186.099 6.4504C186.099 23.9315 186.099 41.4126 186.099 58.8937C186.099 60.6818 186.329 62.445 187.39 63.9705C188.246 65.2084 189.409 66.0587 190.93 66.4213C192.386 66.7715 193.127 68.2845 192.361 69.5099C192.156 69.8475 191.428 70.0101 190.93 70.0101C186.329 70.0476 181.742 70.0226 177.142 70.0226C175.43 70.0226 173.705 70.0226 171.992 70.0226C170.434 70.0226 170.319 69.9101 170.306 68.422C170.293 66.859 170.344 66.784 171.916 66.3963C174.484 65.7586 175.966 64.0455 176.503 61.6197C176.823 60.2192 176.848 58.7312 176.848 57.2807C176.874 40.3872 176.861 23.4939 176.861 6.60045C176.861 5.01239 176.733 4.86234 175.123 4.87485C169.782 4.91236 164.441 4.82483 159.112 5.06241C154.563 5.26248 151.407 7.65082 149.861 11.9148C149.324 13.3903 147.752 14.028 146.194 13.4278C145.555 13.1777 145.657 12.6526 145.657 12.1649C145.657 9.57649 145.657 6.98808 145.657 4.39968C145.657 3.48686 145.657 2.58655 145.657 1.67373C145.657 0.4483 145.734 0.348265 147.011 0.385778C150.219 0.473309 153.413 0.598353 156.62 0.685883C164.926 0.910962 173.232 1.13604 182.969 1.39863L183.007 1.42364Z" fill="black"/>
<path d="M15.6654 137.421C15.6654 145.999 15.6654 154.59 15.6654 163.168C15.6654 163.443 15.6654 163.718 15.6654 163.98C15.7293 165.031 15.9465 165.268 17.0199 165.268C24.7251 165.268 32.443 165.456 40.1482 165.181C47.0228 164.943 51.9168 161.479 54.6002 155.19C54.6769 155.027 54.728 154.852 54.7791 154.677C55.3413 152.826 56.0313 152.426 58.0119 152.801C58.8042 152.951 58.8681 153.464 58.817 154.127C58.5231 157.766 56.9769 160.854 54.4085 163.443C50.8818 166.994 46.5117 168.857 41.4643 168.882C28.0857 168.945 14.7198 168.907 1.34118 168.895C0.216714 168.895 0.11449 168.757 0.0889334 167.619C0.0633772 166.427 0.651169 165.668 1.85231 165.343C4.3057 164.681 6.18407 162.317 6.4013 159.554C6.46519 158.741 6.47797 157.916 6.47797 157.103C6.47797 138.659 6.49075 120.228 6.50353 101.784C6.50353 100.675 7.06576 100.121 8.19023 100.121C12.3687 100.121 16.5471 100.121 20.7255 100.121C21.3772 100.121 22.1567 99.908 22.2461 100.996C22.3867 102.884 22.2461 103.222 21.0066 103.484C18.336 104.059 16.6493 105.66 16.1126 108.273C15.8443 109.549 15.7037 110.887 15.691 112.187C15.6526 120.59 15.6782 128.993 15.6782 137.396L15.6654 137.421Z" fill="black"/>
<path d="M570.016 168.932C563.231 168.932 556.459 168.932 549.673 168.932C549.035 168.932 548.191 169.17 548.076 168.12C547.872 166.257 548.038 165.794 549.277 165.531C552.651 164.831 554.069 162.53 554.555 159.467C554.682 158.666 554.657 157.841 554.657 157.016C554.657 138.572 554.67 120.128 554.682 101.696C554.682 100.196 554.695 100.171 556.229 100.158C560.458 100.158 564.688 100.158 568.904 100.158C570.272 100.158 570.348 100.246 570.31 101.659C570.272 103.235 570.246 103.184 568.726 103.622C565.787 104.46 564.483 106.323 563.934 109.512C563.806 110.262 563.832 111.05 563.832 111.825C563.832 128.906 563.832 145.987 563.832 163.068C563.832 163.381 563.832 163.706 563.832 164.018C563.883 165.144 564.01 165.306 565.122 165.306C572.789 165.306 580.456 165.444 588.11 165.244C594.333 165.081 599.073 162.193 602.012 156.728C602.485 155.853 602.856 154.903 603.099 153.94C603.316 153.089 603.801 152.864 604.581 152.827C606.983 152.702 607.251 152.889 606.843 155.19C606.025 159.817 603.469 163.381 599.495 165.944C596.313 167.995 592.787 168.957 588.966 168.932C582.654 168.907 576.329 168.932 570.016 168.932Z" fill="black"/>
</svg>
