<svg width="28" height="28" viewBox="0 0 28 28" fill="none" xmlns="http://www.w3.org/2000/svg">
<circle cx="14" cy="14" r="14" fill="#303030"/>
<path d="M20.5766 6.8412C20.3675 6.85092 20.1706 6.91168 19.9956 6.97974H19.9932C19.8158 7.05022 18.9724 7.40509 17.6915 7.94224C16.4106 8.48182 14.7481 9.18182 13.0977 9.87696C9.8019 11.2648 6.56197 12.6308 6.56197 12.6308L6.60086 12.6162C6.60086 12.6162 6.37725 12.6891 6.14391 12.8495C6.02482 12.9273 5.89356 13.0343 5.77933 13.202C5.66509 13.3697 5.57273 13.6273 5.60676 13.8922C5.66266 14.3419 5.95433 14.6117 6.16336 14.7599C6.37482 14.9106 6.57655 14.9811 6.57655 14.9811H6.58141L9.61961 16.0044C9.75572 16.4419 10.5456 19.0377 10.7352 19.6356C10.847 19.9929 10.9564 20.2165 11.0925 20.3867C11.1581 20.4742 11.2359 20.5471 11.3283 20.6054C11.3647 20.6273 11.4036 20.6443 11.4425 20.6589C11.4547 20.6662 11.4668 20.6686 11.4814 20.6711L11.4498 20.6638C11.4595 20.6662 11.4668 20.6735 11.4741 20.6759C11.4984 20.6832 11.5154 20.6856 11.547 20.6905C12.0283 20.8363 12.4147 20.5374 12.4147 20.5374L12.4366 20.5204L14.2304 18.887L17.237 21.1936L17.305 21.2228C17.9321 21.4974 18.5665 21.3443 18.9019 21.0745C19.2397 20.8023 19.371 20.4547 19.371 20.4547L19.3929 20.3988L21.7165 8.49641C21.7821 8.20231 21.7991 7.92766 21.7262 7.66029C21.6533 7.39293 21.4661 7.14259 21.2401 7.00891C21.0116 6.87279 20.7856 6.83147 20.5766 6.8412ZM20.5134 8.11724C20.5109 8.15613 20.5182 8.15127 20.5012 8.22661V8.23391L18.1995 20.0124C18.1897 20.0294 18.1727 20.0659 18.1266 20.1023C18.0779 20.1412 18.0391 20.1655 17.8373 20.0853L14.1599 17.2659L11.9384 19.2905L12.405 16.3106C12.405 16.3106 18.1654 10.9415 18.4134 10.7106C18.6613 10.4797 18.5786 10.4311 18.5786 10.4311C18.5956 10.1492 18.2043 10.3485 18.2043 10.3485L10.6283 15.0419L10.6259 15.0297L6.99461 13.8072V13.8047C6.99218 13.8047 6.98731 13.8023 6.98488 13.8023C6.98731 13.8023 7.00433 13.795 7.00433 13.795L7.02377 13.7853L7.04322 13.778C7.04322 13.778 10.2856 12.412 13.5814 11.0242C15.2318 10.329 16.8943 9.62904 18.1727 9.08946C19.4512 8.55231 20.3967 8.15856 20.4502 8.13668C20.5012 8.11724 20.4769 8.11724 20.5134 8.11724Z" fill="white"/>
</svg>
