<svg width="28" height="28" viewBox="0 0 28 28" fill="none" xmlns="http://www.w3.org/2000/svg">
<circle cx="14" cy="14" r="14" fill="#303030"/>
<path d="M12.2958 16.4452L16.6014 13.9565L12.2958 11.4677V16.4452ZM21.8858 9.94961C21.9937 10.3395 22.0683 10.8622 22.1181 11.5258C22.1762 12.1895 22.2011 12.7619 22.2011 13.2596L22.2508 13.9565C22.2508 15.7733 22.1181 17.1089 21.8858 17.9634C21.6784 18.71 21.1973 19.1912 20.4506 19.3986C20.0607 19.5064 19.3473 19.5811 18.2523 19.6308C17.1738 19.6889 16.1866 19.7138 15.274 19.7138L13.955 19.7636C10.4791 19.7636 8.31385 19.6308 7.45938 19.3986C6.71275 19.1912 6.23159 18.71 6.0242 17.9634C5.91635 17.5735 5.84169 17.0508 5.79191 16.3872C5.73384 15.7235 5.70895 15.1511 5.70895 14.6533L5.65918 13.9565C5.65918 12.1397 5.79191 10.8041 6.0242 9.94961C6.23159 9.20298 6.71275 8.72183 7.45938 8.51443C7.84928 8.40658 8.56272 8.33192 9.65777 8.28215C10.7362 8.22408 11.7234 8.19919 12.636 8.19919L13.955 8.14941C17.431 8.14941 19.5962 8.28215 20.4506 8.51443C21.1973 8.72183 21.6784 9.20298 21.8858 9.94961Z" fill="white"/>
</svg>
